REM GENRE ""
REM DATE ""
PERFORMER ""
TITLE "[Beatrice-Raws] Re：Creators 01 [BDRip 1920x1080 x264 FLAC].mkv"
FILE "[Beatrice-Raws] Re：Creators 01 [BDRip 1920x1080 x264 FLAC].mkv" WAVE
	TRACK 01 AUDIO
		TITLE "Part A"
		PERFORMER ""
		INDEX 01 00:00:00
	TRACK 02 AUDIO
		TITLE "Part B"
		PERFORMER ""
		INDEX 01 10:48:04
	TRACK 03 AUDIO
		TITLE "ED"
		PERFORMER ""
		INDEX 01 19:28:06
